<svg xmlns="http://www.w3.org/2000/svg" width="64" height="64" viewBox="0 0 64 64"><g><g><g><path fill="#dc5b21" d="M37.568 31.389c0-.595-.482-1.076-1.076-1.076h-7.05V20.206a1.076 1.076 0 0 0-2.152 0v11.15c0 .595.432 1.109 1.026 1.109h8.176c.594 0 1.076-.482 1.076-1.076z"></path></g><g><path fill="#dc5b21" d="M47.02 61.84c-8.148 0-14.752-6.604-14.752-14.75 0-8.148 6.604-14.752 14.751-14.752 8.147 0 14.752 6.604 14.752 14.75-.01 8.144-6.608 14.743-14.752 14.752zM30.115 47.09c0 .936.078 1.87.233 2.793a20.69 20.69 0 0 1-.848.019c-11.21 0-20.329-9.12-20.329-20.33 0-11.21 9.12-20.329 20.33-20.329 11.21 0 20.33 9.12 20.33 20.33 0 .281-.008.564-.02.847a16.903 16.903 0 0 0-19.696 16.67zm-.614 9.772c-15.048 0-27.29-12.242-27.29-27.29 0-15.047 12.242-27.289 27.29-27.289 15.047 0 27.29 12.242 27.29 27.29-.001 1.194-.08 2.386-.234 3.57a16.838 16.838 0 0 0-4.617-2.223c.027-.449.041-.9.041-1.347 0-12.396-10.084-22.48-22.48-22.48s-22.48 10.084-22.48 22.48 10.084 22.48 22.48 22.48a22.6 22.6 0 0 0 1.347-.041 16.833 16.833 0 0 0 2.224 4.617 27.628 27.628 0 0 1-3.571.233zm28.995-22.168c.296-1.691.446-3.405.446-5.122A29.44 29.44 0 0 0 8.684 8.754a29.441 29.441 0 0 0 20.818 50.259c1.717 0 3.43-.15 5.121-.446a16.896 16.896 0 0 0 28.775-7.312 16.895 16.895 0 0 0-4.9-16.562z"></path></g><g><path fill="#dc5b21" d="M43.216 47.898c1.231-.843 2.771-1.891 2.771-3.698 0-1.851-1.645-2.85-3.196-2.85-1.506 0-3.104.928-3.104 2.649 0 .777.33 1.156 1.01 1.156.76 0 1.17-.43 1.17-.834 0-.819.59-.941.94-.941.705 0 .956.478.956.888 0 .774-.938 1.46-1.926 2.185-1.137.835-2.317 1.698-2.317 2.843v1.305c0 .434.588.688.988.688h4.787c.373 0 .7-.425.7-.955 0-.524-.321-.928-.7-.928h-3.488v-.11c0-.445.662-.887 1.409-1.398z"></path></g><g><path fill="#dc5b21" d="M53.809 47.127h-.572v-.823c0-.516-.56-.699-1.076-.699-.515 0-1.075.183-1.075.7v.822h-1l2.333-4.654a.666.666 0 0 0 .072-.269c0-.533-.723-.854-1.116-.854a1.013 1.013 0 0 0-.933.578l-3.106 6.09a.975.975 0 0 0-.116.452c0 .474.308.809.766.809h3.1v1.329c0 .489.537.712 1.075.712.538 0 1.076-.223 1.076-.712v-1.33h.572c.36 0 .712-.553.712-1.075 0-.499-.222-1.076-.712-1.076z"></path></g></g></g></svg>