<svg xmlns="http://www.w3.org/2000/svg" width="22" height="22" viewBox="0 0 22 22"><g><g><path d="M.32,22l1.51-5.52A10.66,10.66,0,0,1,11.06.5a10.66,10.66,0,0,1,0,21.32h0A10.73,10.73,0,0,1,6,20.52Zm5.91-3.41.32.19A8.82,8.82,0,0,0,11.06,20h0A8.86,8.86,0,0,0,17.33,4.9a8.77,8.77,0,0,0-6.26-2.6,8.86,8.86,0,0,0-8.86,8.85,8.73,8.73,0,0,0,1.35,4.72l.21.33-.89,3.27Z" fill="#fff"></path><path d="M8.4,6.7c-.2-.44-.41-.45-.6-.46H7.29a1,1,0,0,0-.71.34,3,3,0,0,0-.93,2.22,5.11,5.11,0,0,0,1.09,2.75,10.91,10.91,0,0,0,4.54,4c2.25.89,2.71.71,3.2.67A2.74,2.74,0,0,0,16.28,15a2.17,2.17,0,0,0,.15-1.26c-.06-.12-.24-.18-.51-.32s-1.57-.77-1.82-.86-.42-.13-.6.13a12.44,12.44,0,0,1-.84,1c-.16.17-.31.2-.58.06a7.23,7.23,0,0,1-2.14-1.32A8.21,8.21,0,0,1,8.46,10.6c-.16-.27,0-.41.12-.55s.26-.31.4-.46a2,2,0,0,0,.26-.45.47.47,0,0,0,0-.46C9.15,8.54,8.64,7.23,8.4,6.7Z" fill="#fff" fill-rule="evenodd"></path></g></g></svg>