<svg width="19" height="16" viewBox="0 0 19 16" xmlns="http://www.w3.org/2000/svg"><g id="Page-1" fill="none" fill-rule="evenodd"><g id="Artboard" transform="translate(-160 -142)" fill="#2675F5" fill-rule="nonzero"><g id="arrow-left" transform="translate(160 141)"><path d="M17.93 7.49H5.25l4-4.06a1.06 1.06 0 0 0 0-1.5l-.63-.62a1.02 1.02 0 0 0-1.47 0L.3 8.25c-.2.2-.3.47-.3.75s.1.55.3.75l6.85 6.94a1.02 1.02 0 0 0 1.47 0l.62-.63c.4-.408.4-1.062 0-1.47L5.2 10.5h12.75c.57 0 1.05-.5 1.05-1.08v-.89c0-.58-.5-1.04-1.07-1.04z" id="a"></path></g></g></g></svg>