<svg xmlns="http://www.w3.org/2000/svg" width="19" height="16" viewBox="0 0 19 16"><g><g><path fill="#878d95" d="M1.068 6.49l12.684.006-3.997-4.061a1.062 1.062 0 0 1-.303-.749c0-.282.108-.549.303-.747l.622-.631c.196-.198.457-.308.734-.308.278 0 .54.109.735.307l6.851 6.946c.196.199.304.464.303.746 0 .284-.107.549-.303.748l-6.851 6.946a1.024 1.024 0 0 1-.735.307c-.277 0-.538-.11-.734-.307l-.622-.63a1.05 1.05 0 0 1 0-1.475l4.042-4.084H1.054C.48 9.504 0 9.004 0 8.424V7.53c0-.58.495-1.042 1.068-1.042z"></path></g></g></svg>