<svg width="18" height="10" xmlns="http://www.w3.org/2000/svg"><g id="Page-1" fill="none" fill-rule="evenodd"><g id="Artboard" transform="translate(-18 -85)" fill="#8BC7FF" fill-rule="nonzero"><g id="reviews-" transform="translate(17 85)"><g id="a-link"><path d="M10 8.89A3.8 3.8 0 0 1 6.3 5 3.8 3.8 0 0 1 10 1.11 3.8 3.8 0 0 1 13.7 5 3.8 3.8 0 0 1 10 8.89zm8.87-4.26C18.7 4.44 14.84 0 10 0 5.16 0 1.3 4.44 1.13 4.63a.58.58 0 0 0 0 .74C1.3 5.56 5.16 10 10 10c4.84 0 8.7-4.44 8.87-4.63a.58.58 0 0 0 0-.74z" id="a"></path></g><g id="b-link" transform="translate(7 1)"><path d="M4.03 2.5c0-.5.25-.95.63-1.22A2.5 2.5 0 0 0 1 3.5a2.51 2.51 0 0 0 5 .42A1.5 1.5 0 0 1 4.03 2.5z" id="b"></path></g></g></g></g></svg>