<svg xmlns="http://www.w3.org/2000/svg" width="18" height="18" viewBox="0 0 18 18"><g><g><g><path fill="#d4dce0" d="M15.377 7.527c-.667 1.006-1.477 1.7-2.352 2.031.153-.25.3-.516.44-.798.88-1.768 1.444-3.996 1.634-6.406h1.825c-.082 1.96-.624 3.78-1.547 5.173zm-12.764 0C1.69 6.135 1.148 4.314 1.066 2.354H2.89c.19 2.41.754 4.638 1.634 6.406.14.282.287.548.44.799-.875-.332-1.685-1.026-2.352-2.032zm14.86-6.228h-2.31c.008-.256.013-.513.013-.772A.527.527 0 0 0 14.648 0H3.352a.527.527 0 0 0-.528.527c0 .259.005.516.013.772H.527A.527.527 0 0 0 0 1.826C0 4.19.618 6.42 1.739 8.104c1.108 1.666 2.585 2.621 4.18 2.714.361.394.743.714 1.142.96v2.343h-.885c-1.07 0-1.94.87-1.94 1.94v.884H4.2a.527.527 0 0 0 0 1.055H13.8a.527.527 0 1 0 0-1.055h-.037v-.884c0-1.07-.87-1.94-1.94-1.94h-.884v-2.344c.398-.245.78-.565 1.141-.959 1.595-.093 3.072-1.048 4.18-2.714C17.382 6.419 18 4.189 18 1.826a.527.527 0 0 0-.527-.527z"></path></g></g></g></svg>