<svg xmlns="http://www.w3.org/2000/svg" width="18" height="18" viewBox="0 0 18 18"><g><g><g><path fill="#d4dce0" d="M13.897 5.608l-.65.633.148.864a.527.527 0 0 1-.762.584l-.804-.421-.804.421a.529.529 0 0 1-.766-.556l.153-.892-.65-.633a.527.527 0 0 1 .293-.9l.898-.13.402-.812a.528.528 0 0 1 .948 0l.402.812.898.13a.528.528 0 0 1 .294.9zm-4.902 9.285a4.767 4.767 0 0 1-4.759-4.763c0-.292.236-.528.527-.528h8.464c.29 0 .527.236.527.528a4.767 4.767 0 0 1-4.759 4.763zM3.98 5.067a.528.528 0 0 1 .426-.358l.9-.13.4-.813a.529.529 0 0 1 .949 0l.402.812.898.13a.528.528 0 0 1 .293.9l-.65.633.148.864a.528.528 0 0 1-.762.585l-.803-.422-.804.421a.529.529 0 0 1-.767-.556l.154-.892-.65-.633a.527.527 0 0 1-.134-.54zm11.384-2.431A8.941 8.941 0 0 0 9 0a8.941 8.941 0 0 0-6.364 2.636A8.941 8.941 0 0 0 0 9c0 2.404.936 4.664 2.636 6.364A8.941 8.941 0 0 0 9 18a8.941 8.941 0 0 0 6.364-2.636A8.941 8.941 0 0 0 18 9a8.941 8.941 0 0 0-2.636-6.364z"></path></g></g></g></svg>