<svg xmlns="http://www.w3.org/2000/svg" width="22" height="18" viewBox="0 0 22 18"><g><g><g><path fill="#d4dce0" d="M12.165 13.18c-.379.245-.863.38-1.365.38-.501 0-.986-.135-1.364-.38L3.258 9.182s-.558-.36-.558.457v3.991c0 2.103 3.627 4.37 8.1 4.37s8.1-2.267 8.1-4.37v-.28-3.936c0-.656-.396-.336-.396-.336z"></path></g><g><path fill="#d4dce0" d="M21.238 6.296c.483-.306.483-.807 0-1.114L11.677.23c-.482-.307-1.272-.307-1.754 0L.362 5.182c-.483.307-.483.808 0 1.114l9.561 6.074c.482.307 1.272.307 1.754 0"></path></g><g><path fill="#d4dce0" d="M20.17 14.856V8.328s.004-.31-.143-.207c-.117.082-.405.283-.506.393-.118.128-.091.414-.091.414v5.928c0 .084-.058.124-.085.144-.266.196-.445.558-.445.972 0 .623.403 1.128.9 1.128s.9-.505.9-1.128c0-.416-.18-.779-.448-.974-.026-.02-.082-.058-.082-.142z"></path></g></g></g></svg>