<svg xmlns="http://www.w3.org/2000/svg" width="18" height="18" viewBox="0 0 18 18"><g><g><g><path fill="#d4dce0" d="M8.648 10.643a.527.527 0 0 1 .782 0l1.423 1.573 1.876-2-2.42-3.227a1.71 1.71 0 0 0-.742-.577V3.88h3.709a.527.527 0 0 0 .357-.916L12.609 1.94 13.65.9a.528.528 0 0 0-.373-.9H9.039a.527.527 0 0 0-.527.527v5.885a1.71 1.71 0 0 0-.742.577l-2.42 3.227 1.875 2z"></path></g><g><path fill="#d4dce0" d="M17.935 17.154l-4.563-6.084-2.14 2.282a.527.527 0 0 1-.385.167h-.005a.527.527 0 0 1-.386-.174L9.04 11.78l-1.416 1.565a.528.528 0 0 1-.386.174h-.005a.527.527 0 0 1-.385-.167l-2.14-2.282-4.563 6.084a.527.527 0 0 0 .422.843h16.946a.527.527 0 0 0 .422-.843z"></path></g></g></g></svg>