<svg width="68px" height="64px" viewBox="0 0 68 64" version="1.1" xmlns="http://www.w3.org/2000/svg" xmlns:xlink="http://www.w3.org/1999/xlink"><title>008-bill</title><desc>Created with Sketch.</desc><defs></defs><g id="Page-1" stroke="none" stroke-width="1" fill="none" fill-rule="evenodd"><g id="SameDays-Desktop" transform="translate(-375.000000, -1092.000000)" fill="#dc5b21" fill-rule="nonzero"><g id="Guarantees" transform="translate(375.000000, 871.000000)"><g id="1" transform="translate(0.000000, 221.000000)"><g id="008-bill"><path d="M51.6629511,0.0530785563 C44.9755839,0.0530785563 39.2685776,4.41666663 37.1305732,10.2595541 L10.1502123,10.2595541 C9.55254774,10.2595541 9.0674098,10.7983015 9.06316352,11.3954352 L8.8062633,49.5291932 L1.11571132,49.5291932 C0.515392815,49.5291932 -5.68434189e-14,49.9639066 -5.68434189e-14,50.5652866 L-5.68434189e-14,55.4044587 C0.0138003567,59.960191 3.60191076,63.7027601 8.15286624,63.9087049 L8.15286624,63.9325902 L41.7154989,63.9325902 L41.7154989,63.9007431 C41.9872611,63.910828 42.0992569,63.9325902 42.2712315,63.9325902 L42.294586,63.9325902 C47.004777,63.9251593 50.8195329,60.1045647 50.8195329,55.3943737 L50.8195329,30.9272824 C51.0912951,30.9421444 51.378981,30.9501062 51.6602972,30.9501062 C60.1703821,30.9501062 67.0955414,24.0116774 67.0955414,15.5010616 C67.0955414,6.99097668 60.1735669,0.0530785563 51.6629511,0.0530785563 Z M8.56634823,61.7584925 L8.55944805,61.7584925 C5.0429936,61.7537155 2.1900213,58.9102973 2.17409766,55.3933121 L2.17409766,51.7032908 L33.6985138,51.7032908 L33.6985138,55.3779193 C33.7001062,57.6464969 34.6061572,59.8211253 36.215499,61.4203822 C36.3296178,61.5345011 36.4713376,61.6226114 36.5907643,61.7584925 L8.56634823,61.7584925 Z M48.6454352,55.3933121 C48.645966,58.9039278 45.8036094,61.7515924 42.2935244,61.7584925 L42.2728237,61.7584925 C38.7484076,61.7521231 35.8901274,58.9028662 35.8726115,55.378981 L35.8726115,50.5652866 C35.8816348,50.287155 35.7754777,50.0180466 35.5785563,49.8216561 C35.3816349,49.6252655 35.1125265,49.5196391 34.8349257,49.5291932 L10.980361,49.5291932 L11.2298301,12.4336518 L36.52707,12.4336518 C36.334395,13.4288747 36.2346072,14.4394904 36.2292994,15.4527601 C36.2271762,17.5955415 36.6740977,19.7144374 37.5414013,21.6735668 L27.2738854,21.6735668 C26.6730361,21.6735668 26.1868365,22.1602973 26.1868365,22.7606157 C26.1868365,23.3609342 26.6730361,23.8476645 27.2738854,23.8476645 L38.7208069,23.8476645 C40.9633758,27.3742038 44.5483015,29.8328025 48.6454352,30.6555202 L48.6454352,55.3933121 Z M51.6629511,28.7765393 C44.3402335,28.7765393 38.403397,22.8402336 38.4039278,15.5169851 C38.4039278,8.1937367 44.3402335,2.25743096 51.663482,2.25743096 C58.9861995,2.25743096 64.9225052,8.19426758 64.9225052,15.5169851 C64.9145436,22.836518 58.9830149,28.7685775 51.6629511,28.7765393 Z" id="Shape"></path><g id="Close" transform="translate(47.000000, 11.000000)" stroke="#dc5b21"><path d="M-0.547581296,5.44166283 L10.4238481,5.44166283 C10.706705,5.44166283 10.9381334,5.19866283 10.9381334,4.90166283 C10.9381334,4.60466283 10.706705,4.36166283 10.4238481,4.36166283 L-0.547581296,4.36166283 C-0.830438201,4.36166283 -1.06186658,4.60466283 -1.06186658,4.90166283 C-1.06186658,5.19866283 -0.830438201,5.44166283 -0.547581296,5.44166283 Z" id="Shape" transform="translate(4.938133, 4.901663) rotate(-315.000000) translate(-4.938133, -4.901663) "></path><path d="M-0.547581296,5.44166283 L10.4238481,5.44166283 C10.706705,5.44166283 10.9381334,5.19866283 10.9381334,4.90166283 C10.9381334,4.60466283 10.706705,4.36166283 10.4238481,4.36166283 L-0.547581296,4.36166283 C-0.830438201,4.36166283 -1.06186658,4.60466283 -1.06186658,4.90166283 C-1.06186658,5.19866283 -0.830438201,5.44166283 -0.547581296,5.44166283 Z" id="Shape" transform="translate(4.938133, 4.901663) rotate(-585.000000) translate(-4.938133, -4.901663) "></path></g><path d="M20.2961784,28.9081741 C18.3773886,28.9081741 16.816879,30.4193207 16.816879,32.27707 C16.816879,34.1348196 18.3773886,35.645966 20.2961784,35.645966 C22.2149681,35.645966 23.7760084,34.1348196 23.7760084,32.27707 C23.7760084,30.4193207 22.2149681,28.9081741 20.2961784,28.9081741 Z M20.2961784,33.4718683 C19.5759023,33.4718683 18.9909767,32.935775 18.9909767,32.27707 C18.9909767,31.6178344 19.5764331,31.0822718 20.2961784,31.0822718 C21.0159235,31.0822718 21.6019108,31.6183651 21.6019108,32.27707 C21.6019108,32.935775 21.0159235,33.4718683 20.2961784,33.4718683 Z" id="Shape"></path><path d="M26.1868365,32.272293 C26.1868365,32.8726115 26.6730361,33.3593418 27.2738854,33.3593418 L41.7664544,33.3593418 C42.3667729,33.3593418 42.8535032,32.8726115 42.8535032,32.272293 C42.8535032,31.6719746 42.3667729,31.1852441 41.7664544,31.1852441 L27.2738854,31.1852441 C26.6730361,31.1852441 26.1868365,31.6719746 26.1868365,32.272293 Z" id="Shape"></path><path d="M20.2961784,19.4585987 C18.3773886,19.4585987 16.816879,20.970276 16.816879,22.8280255 C16.816879,24.6857749 18.3773886,26.1969215 20.2961784,26.1969215 C22.2149681,26.1969215 23.7760084,24.6857749 23.7760084,22.8280255 C23.7760084,20.970276 22.2149681,19.4585987 20.2961784,19.4585987 Z M20.2961784,24.0228238 C19.5759023,24.0228238 18.9909767,23.4867303 18.9909767,22.8280255 C18.9909767,22.1693206 19.5764331,21.6326964 20.2961784,21.6326964 C21.0159235,21.6326964 21.6019108,22.1687899 21.6019108,22.8280255 C21.6019108,23.4867303 21.0159235,24.0233546 20.2961784,24.0233546 L20.2961784,24.0228238 Z" id="Shape"></path><path d="M20.2961784,38.3566879 C18.3773886,38.3566879 16.816879,39.8678344 16.816879,41.7255839 C16.816879,43.5833334 18.3773886,45.0944799 20.2961784,45.0944799 C22.2149681,45.0944799 23.7760084,43.5833334 23.7760084,41.7255839 C23.7760084,39.8678344 22.2149681,38.3566879 20.2961784,38.3566879 Z M20.2961784,42.9203822 C19.5759023,42.9203822 18.9909767,42.3848195 18.9909767,41.7255839 C18.9909767,41.0668789 19.5764331,40.5307856 20.2961784,40.5307856 C21.0159235,40.5307856 21.6019108,41.0668789 21.6019108,41.7255839 C21.6019108,42.3842887 21.0159235,42.9203822 20.2961784,42.9203822 Z" id="Shape"></path><path d="M41.7664544,40.6969214 L27.2738854,40.6969214 C26.6730361,40.6969214 26.1868365,41.1836519 26.1868365,41.7839702 C26.1868365,42.3842887 26.6730361,42.8710191 27.2738854,42.8710191 L41.7664544,42.8710191 C42.3667729,42.8710191 42.8535032,42.3842887 42.8535032,41.7839702 C42.8535032,41.1836519 42.3667729,40.6969214 41.7664544,40.6969214 Z" id="Shape"></path></g></g></g></g></g></svg>