<svg width="78px" height="20px" viewBox="0 0 78 20" version="1.1" xmlns="http://www.w3.org/2000/svg" xmlns:xlink="http://www.w3.org/1999/xlink"><title>fb</title><desc>Created with Sketch.</desc><defs></defs><g id="Page-1" stroke="none" stroke-width="1" fill="none" fill-rule="evenodd"><g id="SameDays-Desktop" transform="translate(-1143.000000, -6715.000000)"><g id="Footer" transform="translate(0.000000, 6636.000000)"><g id="Group-5" transform="translate(1143.000000, 40.000000)"><g id="fb" transform="translate(0.000000, 39.000000)"><rect id="Rectangle-12" fill="#4267B2" x="0" y="0" width="78" height="20" rx="2"></rect><g id="like" transform="translate(7.000000, 4.000000)" fill="#FFFFFF" fill-rule="nonzero"><path d="M1.86861382,3.51588618 L0.373731707,3.51588618 C0.168219512,3.51588618 0,3.6832561 0,3.88959553 L0,10.6166098 C0,10.8228598 0.167481707,10.9902744 0.373731707,10.9902744 L1.86861382,10.9902744 C2.07486382,10.9902744 2.24234553,10.8228374 2.24234553,10.6166098 L2.24234553,3.88959553 C2.24234553,3.6832561 2.07410366,3.51588618 1.86861382,3.51588618 Z" id="Shape"></path><path d="M10.5140772,3.51588618 C10.4538902,3.50569106 7.63576626,3.51588618 7.63576626,3.51588618 L8.02939634,2.442 C8.30099797,1.70030488 8.12515447,0.567819106 7.37154268,0.16520122 C7.12616667,0.0340955285 6.78333333,-0.0317479675 6.5069248,0.0378292683 C6.34840854,0.0777154472 6.20909756,0.182662602 6.12606098,0.323270325 C6.03057114,0.48498374 6.04043089,0.67375 6.0064248,0.853058943 C5.92019106,1.30785976 5.70528862,1.74028049 5.3724939,2.06484756 C4.79226626,2.6307439 2.98980894,4.26330488 2.98980894,4.26330488 L2.98980894,10.2428782 L9.21851423,10.242878 C10.0589858,10.2433699 10.6097907,9.30479268 10.1952561,8.57166057 C10.6893841,8.25518699 10.8583862,7.58859146 10.5689878,7.07677846 C11.0631382,6.76030488 11.2321179,6.09370935 10.9427195,5.58189634 C11.7953089,5.03585366 11.5102703,3.68437398 10.5140772,3.51588618 Z" id="Shape"></path></g><path d="M24.9005,6.146 L26.2755,6.146 L26.2755,12.812 L30.2685,12.812 L30.2685,14 L24.9005,14 L24.9005,6.146 Z M31.0715,6.146 L32.3255,6.146 L32.3255,7.334 L31.0715,7.334 L31.0715,6.146 Z M31.0715,8.313 L32.3255,8.313 L32.3255,14 L31.0715,14 L31.0715,8.313 Z M33.7225,6.146 L34.9765,6.146 L34.9765,10.612 L37.2425,8.313 L38.7825,8.313 L36.6045,10.403 L38.9915,14 L37.4625,14 L35.7245,11.239 L34.9765,11.965 L34.9765,14 L33.7225,14 L33.7225,6.146 Z M43.5015,10.656 C43.4868333,10.457999 43.444667,10.2673343 43.375,10.084 C43.305333,9.90066575 43.2100006,9.74116735 43.089,9.6055 C42.9679994,9.46983266 42.8213342,9.35983376 42.649,9.2755 C42.4766658,9.19116624 42.2841677,9.149 42.0715,9.149 C41.8514989,9.149 41.6516676,9.18749962 41.472,9.2645 C41.2923324,9.34150038 41.138334,9.44783265 41.01,9.5835 C40.881666,9.71916735 40.7790004,9.87866575 40.702,10.062 C40.6249996,10.2453342 40.5828334,10.4433323 40.5755,10.656 L43.5015,10.656 Z M40.5755,11.481 C40.5755,11.7010011 40.6066664,11.9136656 40.669,12.119 C40.7313336,12.3243344 40.8248327,12.5039992 40.9495,12.658 C41.0741673,12.8120008 41.2318324,12.9348329 41.4225,13.0265 C41.6131676,13.1181671 41.8404987,13.164 42.1045,13.164 C42.4711685,13.164 42.7663322,13.0851675 42.99,12.9275 C43.2136678,12.7698325 43.3804995,12.5333349 43.4905,12.218 L44.6785,12.218 C44.6124997,12.5260015 44.4988341,12.8009988 44.3375,13.043 C44.1761659,13.2850012 43.9818345,13.4884992 43.7545,13.6535 C43.5271655,13.8185008 43.2723347,13.9431662 42.99,14.0275 C42.7076653,14.1118338 42.4125015,14.154 42.1045,14.154 C41.6571644,14.154 41.2611684,14.0806674 40.9165,13.934 C40.5718316,13.7873326 40.2803345,13.5820013 40.042,13.318 C39.8036655,13.0539987 39.6240006,12.7386685 39.503,12.372 C39.3819994,12.0053315 39.3215,11.6020022 39.3215,11.162 C39.3215,10.7586647 39.385666,10.3755018 39.514,10.0125 C39.642334,9.64949818 39.8256655,9.33050138 40.064,9.0555 C40.3023345,8.78049862 40.590165,8.56233414 40.9275,8.401 C41.264835,8.23966586 41.6461645,8.159 42.0715,8.159 C42.5188356,8.159 42.9203316,8.25249907 43.276,8.4395 C43.6316684,8.62650093 43.9268322,8.87399846 44.1615,9.182 C44.3961678,9.49000154 44.5666661,9.84383134 44.673,10.2435 C44.7793339,10.6431687 44.8068336,11.0556645 44.7555,11.481 L40.5755,11.481 Z M48.4955,6.3 L53.7645,6.3 L53.7645,7.345 C53.3611646,7.79966894 52.9945017,8.27083089 52.6645,8.7585 C52.3344984,9.2461691 52.0466679,9.76316394 51.801,10.3095 C51.5553321,10.8558361 51.3555008,11.4333303 51.2015,12.042 C51.0474992,12.6506697 50.9448336,13.3033299 50.8935,14 L49.5185,14 C49.5625002,13.3913303 49.6669992,12.790003 49.832,12.196 C49.9970008,11.601997 50.2096654,11.0263361 50.47,10.469 C50.7303346,9.91166388 51.0328316,9.3763359 51.3775,8.863 C51.7221684,8.3496641 52.092498,7.86933557 52.4885,7.422 L48.4955,7.422 L48.4955,6.3 Z M54.9855,12.515 L56.5145,12.515 L56.5145,14 L54.9855,14 L54.9855,12.515 Z M57.6695,6.3 L62.9385,6.3 L62.9385,7.345 C62.5351646,7.79966894 62.1685017,8.27083089 61.8385,8.7585 C61.5084983,9.2461691 61.2206679,9.76316394 60.975,10.3095 C60.7293321,10.8558361 60.5295008,11.4333303 60.3755,12.042 C60.2214992,12.6506697 60.1188336,13.3033299 60.0675,14 L58.6925,14 C58.7365002,13.3913303 58.8409992,12.790003 59.006,12.196 C59.1710008,11.601997 59.3836654,11.0263361 59.644,10.469 C59.9043346,9.91166388 60.2068316,9.3763359 60.5515,8.863 C60.8961684,8.3496641 61.266498,7.86933557 61.6625,7.422 L57.6695,7.422 L57.6695,6.3 Z M64.2365,6.146 L65.6115,6.146 L65.6115,9.721 L69.1095,6.146 L70.8035,6.146 L67.6685,9.281 L71.0235,14 L69.3075,14 L66.7335,10.249 L65.6115,11.36 L65.6115,14 L64.2365,14 L64.2365,6.146 Z" id="Like-7.7K" fill="#FFFFFF"></path></g></g></g></g></g></svg>