<svg xmlns="http://www.w3.org/2000/svg" width="19" height="16" viewBox="0 0 19 16"><g><g opacity=".5"><path fill="#fff" d="M17.932 6.49l-12.684.006 3.997-4.061c.195-.198.303-.467.303-.749A1.06 1.06 0 0 0 9.245.94L8.623.308A1.024 1.024 0 0 0 7.889 0c-.278 0-.54.109-.735.307L.303 7.253c-.196.199-.304.464-.303.746 0 .284.107.549.303.748l6.851 6.946c.196.198.456.307.735.307.277 0 .538-.11.734-.307l.622-.63a1.05 1.05 0 0 0 0-1.475L5.203 9.504h12.743c.573 0 1.054-.5 1.054-1.08V7.53c0-.58-.495-1.042-1.068-1.042z"/></g></g></svg>