<svg xmlns="http://www.w3.org/2000/svg" width="85" height="74" viewBox="0 0 85 74"><g><g><g><path fill="#dc5b21" d="M25.109 61.946h38.175v4.348a5.696 5.696 0 0 1-5.692 5.687h-26.79a5.696 5.696 0 0 1-5.693-5.687zm5.693-59.937h26.79a5.699 5.699 0 0 1 5.692 5.692v2.344H60.94a1.005 1.005 0 1 0 0 2.01h2.344v4.687h-1.792c-.518 0-.95.393-1 .908l-.335 3.471c-1.45.385-2.84.97-4.13 1.738l-2.666-2.207c-.399-.33-.984-.303-1.35.064l-3.983 3.981a1.004 1.004 0 0 0-.063 1.351l2.212 2.671a16.533 16.533 0 0 0-1.743 4.124l-3.472.335c-.515.05-.908.482-.908 1v5.645c0 .517.393.95.908 1l3.472.334c.385 1.45.97 2.84 1.738 4.13l-2.207 2.665c-.33.4-.303.985.063 1.351l3.982 3.982c.367.366.952.394 1.352.063l2.67-2.212a16.524 16.524 0 0 0 4.126 1.742l.334 3.472c.05.515.482.907 1 .908h1.792v2.679H25.11V12.054H52.4a1.005 1.005 0 1 0 0-2.009H25.109V7.701a5.7 5.7 0 0 1 5.693-5.692zm35.733 20.017c.042.435.36.793.788.886a14.545 14.545 0 0 1 4.809 2.03c.368.237.848.208 1.186-.071l2.516-2.085 2.647 2.68-2.092 2.527a1.004 1.004 0 0 0-.062 1.197 14.096 14.096 0 0 1 2.021 4.796c.093.427.451.745.886.787l3.276.316v3.821l-3.227.317c-.434.042-.792.36-.884.787a14.537 14.537 0 0 1-2.03 4.808c-.237.368-.209.848.07 1.185l2.089 2.522-2.689 2.688-2.521-2.088a1.005 1.005 0 0 0-1.199-.062 14.105 14.105 0 0 1-4.796 2.021c-.427.093-.745.451-.787.886l-.317 3.275H62.4l-.316-3.275a1.005 1.005 0 0 0-.787-.886 14.545 14.545 0 0 1-4.81-2.03 1.005 1.005 0 0 0-1.185.071l-2.521 2.088-2.69-2.688 2.089-2.522c.283-.341.308-.828.062-1.197a14.097 14.097 0 0 1-2.022-4.796 1.005 1.005 0 0 0-.885-.787l-3.276-.316V35.09l3.276-.316c.435-.042.793-.36.885-.787a14.54 14.54 0 0 1 2.03-4.81c.238-.367.21-.847-.07-1.184L50.09 25.47l2.69-2.688 2.52 2.088c.343.283.83.308 1.199.062a14.102 14.102 0 0 1 4.797-2.021c.427-.093.745-.45.786-.886l.317-3.275h3.82zM30.801 74H57.59a7.71 7.71 0 0 0 7.701-7.701v-9.041h1.843c.518 0 .95-.393 1-.908l.335-3.471c1.45-.385 2.84-.97 4.13-1.738l2.665 2.207c.399.33.984.303 1.35-.064l3.982-3.981c.367-.367.394-.952.064-1.351l-2.212-2.671a16.522 16.522 0 0 0 1.742-4.125l3.422-.334c.515-.05.907-.483.907-1v-5.645c0-.517-.393-.95-.908-1l-3.47-.334c-.386-1.45-.97-2.84-1.739-4.13l2.207-2.665c.33-.397.304-.98-.059-1.346l-3.931-3.982a1.005 1.005 0 0 0-1.356-.068l-2.671 2.212a16.525 16.525 0 0 0-4.124-1.743l-.335-3.471a1.005 1.005 0 0 0-.999-.908H65.29v-9.04A7.71 7.71 0 0 0 57.59 0H30.8A7.71 7.71 0 0 0 23.1 7.701V66.3A7.71 7.71 0 0 0 30.801 74z"></path></g><g><path fill="#dc5b21" d="M55.695 12.059h1.86a1.005 1.005 0 1 0 0-2.009h-1.86a1.005 1.005 0 1 0 0 2.009z"></path></g><g><path fill="#dc5b21" d="M45.703 66.966a1.507 1.507 0 1 1-3.014 0 1.507 1.507 0 0 1 3.014 0zm-1.507 3.516a3.516 3.516 0 1 0 0-7.032 3.516 3.516 0 0 0 0 7.032z"></path></g><g><path fill="#dc5b21" d="M74.291 36.995c0 5.515-4.47 9.985-9.986 9.985-5.515 0-9.986-4.47-9.986-9.985.006-5.512 4.473-9.979 9.986-9.985 5.515 0 9.986 4.47 9.986 9.985zm-21.981 0c0 6.625 5.37 11.995 11.995 11.995 6.625 0 11.995-5.37 11.995-11.995C76.3 30.37 70.93 25 64.305 25c-6.622.007-11.988 5.373-11.995 11.995z"></path></g><g><path fill="#dc5b21" d="M62.28 40.576c.39.381 1.013.381 1.403 0l5.857-5.718a1.004 1.004 0 1 0-1.404-1.438l-5.155 5.033-2.55-2.488a1.005 1.005 0 0 0-1.403 1.437z"></path></g><g><path fill="#dc5b21" d="M40.912 33.82h-1.387a1.005 1.005 0 0 0 0 2.01h1.387a1.005 1.005 0 1 0 0-2.01z"></path></g><g><path fill="#dc5b21" d="M29.025 35.83h6.056a1.005 1.005 0 0 0 0-2.01h-6.056a1.005 1.005 0 0 0 0 2.01z"></path></g><g><path fill="#dc5b21" d="M40.915 41.19h-6.41a1.005 1.005 0 0 0 0 2.01h6.41a1.005 1.005 0 0 0 0-2.01z"></path></g><g><path fill="#dc5b21" d="M29.025 43.199h1.034a1.005 1.005 0 0 0 0-2.009h-1.034a1.005 1.005 0 0 0 0 2.01z"></path></g><g><path fill="#dc5b21" d="M36.225 27.79h6.362a1.005 1.005 0 0 0 0-2.01h-6.362a1.005 1.005 0 0 0 0 2.009z"></path></g><g><path fill="#dc5b21" d="M29.025 27.79h2.708a1.005 1.005 0 1 0 0-2.01h-2.708a1.005 1.005 0 0 0 0 2.009z"></path></g><g><path fill="#dc5b21" d="M8.926 32.636c.512-.725.769-1.425.769-2.102 0-.677-.223-1.242-.668-1.696-.445-.455-1.016-.682-1.712-.682-1.277 0-2.486.909-3.628 2.726L.06 28.736c.948-1.47 1.988-2.581 3.12-3.335 1.131-.754 2.573-1.131 4.324-1.131 1.75 0 3.288.556 4.614 1.667 1.325 1.112 1.988 2.625 1.988 4.539 0 1.044-.266 2.044-.798 3.001-.533.957-1.514 2.18-2.946 3.669l-3.656 3.799h8.009v4.06H.408v-3.364l5.95-6.09c1.199-1.218 2.055-2.19 2.568-2.914z"></path></g></g></g></svg>