<svg xmlns="http://www.w3.org/2000/svg" width="87" height="80" viewBox="0 0 87 80"><g><g><g><path fill="#dc5b21" d="M8.442 35.927v-3.665h4.506v3.665h2.374v4.056h-2.373V45H8.441v-5.017H0v-3.575L7.48 24h5.108l-7.12 11.927z"></path></g><g><g><path fill="#dc5b21" d="M73.14 63.114l-3.534 3.29V56.102a.992.992 0 0 0-1.984 0v10.302l-3.535-3.29a.992.992 0 0 0-1.35 1.453l5.201 4.842c.381.354.971.354 1.352 0l5.202-4.842a.992.992 0 0 0-1.351-1.452z"></path></g><g><path fill="#dc5b21" d="M56.05 71.526v-.372h-.264a15.508 15.508 0 0 1 1.819-19.715.994.994 0 0 0 .628-.597 15.534 15.534 0 1 1 10.379 27.09 15.526 15.526 0 0 1-12.562-6.406zm-26.447-.382a5.623 5.623 0 0 1-5.62-5.614v-4.293H51.13a17.384 17.384 0 0 0 2.313 9.907zm0-69.08H56.05a5.626 5.626 0 0 1 5.62 5.62v2.313h-2.315a.992.992 0 0 0 0 1.984h2.314v34.328A17.573 17.573 0 0 0 56.76 49.5H54.53a.992.992 0 1 0 0 1.984h.383a17.453 17.453 0 0 0-3.539 7.769h-27.39V11.98h26.943a.992.992 0 0 0 0-1.984H23.983V7.683a5.626 5.626 0 0 1 5.62-5.62zm39.009 42.81c-1.68-.002-3.35.24-4.96.715V7.683A7.612 7.612 0 0 0 56.05.08H29.603A7.612 7.612 0 0 0 22 7.683v57.852a7.612 7.612 0 0 0 7.603 7.603h25.178a17.517 17.517 0 1 0 13.83-28.265z"></path></g><g><path fill="#dc5b21" d="M54.182 11.983h1.837a.992.992 0 1 0 0-1.983h-1.837a.992.992 0 0 0 0 1.983z"></path></g><g><path fill="#dc5b21" d="M41.343 66.201a1.488 1.488 0 1 1 2.976 0 1.488 1.488 0 0 1-2.976 0zm-1.983 0a3.471 3.471 0 1 0 6.942 0 3.471 3.471 0 0 0-6.942 0z"></path></g><g><path fill="#dc5b21" d="M28.352 23.723h5.553a.992.992 0 1 0 0-1.983h-5.553a.992.992 0 0 0 0 1.983z"></path></g><g><path fill="#dc5b21" d="M38.462 23.723h3.57a.992.992 0 1 0 0-1.983h-3.57a.992.992 0 0 0 0 1.983z"></path></g><g><path fill="#dc5b21" d="M46.79 22.732c0 .547.444.991.992.991h9.52a.992.992 0 1 0 0-1.983h-9.52a.992.992 0 0 0-.992.992z"></path></g><g><path fill="#dc5b21" d="M28.352 32.973h9.52a.992.992 0 1 0 0-1.983h-9.52a.992.992 0 1 0 0 1.983z"></path></g><g><path fill="#dc5b21" d="M47.985 32.973a.992.992 0 1 0 0-1.983h-5.553a.992.992 0 1 0 0 1.983z"></path></g><g><path fill="#dc5b21" d="M57.302 30.99h-3.57a.992.992 0 1 0 0 1.983h3.57a.992.992 0 1 0 0-1.983z"></path></g><g><path fill="#dc5b21" d="M30.732 40.25h-2.38a.992.992 0 0 0 0 1.983h2.38a.992.992 0 1 0 0-1.983z"></path></g><g><path fill="#dc5b21" d="M40.845 40.25h-5.553a.992.992 0 0 0 0 1.983h5.553a.992.992 0 1 0 0-1.983z"></path></g><g><path fill="#dc5b21" d="M57.302 40.25h-10.71a.992.992 0 0 0 0 1.983h10.71a.992.992 0 1 0 0-1.983z"></path></g><g><path fill="#dc5b21" d="M30.732 49.5h-2.38a.992.992 0 1 0 0 1.983h2.38a.992.992 0 1 0 0-1.983z"></path></g><g><path fill="#dc5b21" d="M48.78 49.5H35.291a.992.992 0 1 0 0 1.983h13.487a.992.992 0 1 0 0-1.983z"></path></g></g></g></g></svg>