<svg xmlns="http://www.w3.org/2000/svg" width="92" height="74" viewBox="0 0 92 74"><g><g><g><path fill="#dc5b21" d="M52.633 50.896a2.346 2.346 0 0 1-2.343-2.344V34.337h39.343v14.215a2.346 2.346 0 0 1-2.343 2.344zm10.548 9.04H25.009V12.055h27.29a1.005 1.005 0 1 0 0-2.009h-27.29V7.701a5.699 5.699 0 0 1 5.692-5.692H57.49a5.699 5.699 0 0 1 5.692 5.692v2.344h-2.344a1.005 1.005 0 0 0 0 2.01h2.344v9.04H52.633a4.358 4.358 0 0 0-4.352 4.353v23.104a4.358 4.358 0 0 0 4.352 4.353h10.548zm-5.692 12.045H30.7a5.696 5.696 0 0 1-5.692-5.687v-4.348h38.172v4.348a5.696 5.696 0 0 1-5.692 5.687zm32.144-46.533v1.857H50.29v-1.857a2.346 2.346 0 0 1 2.343-2.344H87.29a2.346 2.346 0 0 1 2.343 2.344zM50.29 29.314h39.343v3.024H50.29zm37-8.219h-22.1V7.701A7.71 7.71 0 0 0 57.489 0H30.7A7.71 7.71 0 0 0 23 7.701V66.3A7.71 7.71 0 0 0 30.701 74H57.49a7.71 7.71 0 0 0 7.701-7.701V52.905h22.1a4.358 4.358 0 0 0 4.353-4.353V25.448a4.358 4.358 0 0 0-4.353-4.353z"></path></g><g><path fill="#dc5b21" d="M81.926 46.313c-.127 0-.254-.009-.38-.025a5.127 5.127 0 0 0 0-6.195 3.121 3.121 0 1 1 .38 6.22zm-7.591-3.122c0-1.724 1.4-3.122 3.126-3.122a3.124 3.124 0 0 1 3.127 3.122 3.128 3.128 0 0 1-6.253 0zm5.356-4.616a5.13 5.13 0 1 0 0 9.232 5.13 5.13 0 1 0 0-9.232z"></path></g><g><path fill="#dc5b21" d="M55.595 12.059h1.86a1.005 1.005 0 1 0 0-2.009h-1.86a1.005 1.005 0 1 0 0 2.009z"></path></g><g><path fill="#dc5b21" d="M42.589 66.966a1.507 1.507 0 1 1 3.014 0 1.507 1.507 0 0 1-3.014 0zm-2.009 0a3.516 3.516 0 1 0 7.032 0 3.516 3.516 0 0 0-7.032 0z"></path></g><g><path fill="#dc5b21" d="M42.76 33.82h-7.415a1.005 1.005 0 0 0 0 2.01h7.415a1.005 1.005 0 1 0 0-2.01z"></path></g><g><path fill="#dc5b21" d="M29.195 35.83h1.703a1.005 1.005 0 0 0 0-2.01h-1.703a1.005 1.005 0 0 0 0 2.01z"></path></g><g><path fill="#dc5b21" d="M42.757 40.52h-3.062a1.005 1.005 0 1 0 0 2.009h3.062a1.005 1.005 0 1 0 0-2.009z"></path></g><g><path fill="#dc5b21" d="M35.251 40.52h-6.056a1.005 1.005 0 1 0 0 2.009h6.056a1.005 1.005 0 1 0 0-2.009z"></path></g><g><path fill="#dc5b21" d="M42.754 26.45h-1.34a1.005 1.005 0 0 0 0 2.009h1.34a1.005 1.005 0 1 0 0-2.009z"></path></g><g><path fill="#dc5b21" d="M29.195 28.46h7.73a1.005 1.005 0 0 0 0-2.01h-7.73a1.005 1.005 0 0 0 0 2.01z"></path></g><g><path fill="#dc5b21" d="M1.101 28.587V24.73h12.412v3.132l-4.147 4.727c1.624.27 2.88.952 3.77 2.045.89 1.092 1.334 2.353 1.334 3.784 0 2.127-.72 3.794-2.16 5.003-1.44 1.208-3.282 1.812-5.525 1.812-2.243 0-4.514-.793-6.815-2.378l1.856-3.596c1.914 1.353 3.625 2.03 5.133 2.03.909 0 1.658-.222 2.248-.667.59-.445.884-1.087.884-1.929 0-.84-.338-1.507-1.015-2-.677-.493-1.614-.74-2.813-.74-.638 0-1.537.184-2.697.551v-3.335l3.886-4.582z"></path></g></g></g></svg>