<svg version="1.1" id="Layer_1" xmlns="http://www.w3.org/2000/svg" xmlns:xlink="http://www.w3.org/1999/xlink" x="0px" y="0px" viewBox="0 0 150 20" style="enable-background:new 0 0 150 20;" xml:space="preserve">
<style type="text/css">
	.st0{fill:#0D7ABE;}
	.st1{fill:#FFFFFF;}
</style>
<title>twitter</title>
<desc>Created with Sketch.</desc>
<g id="Page-1">
	<g id="SameDays-Desktop" transform="translate(-1143.000000, -6740.000000)">
		<g id="Footer" transform="translate(0.000000, 6636.000000)">
			<g id="Group-5" transform="translate(1143.000000, 40.000000)">
				<g id="twitter" transform="translate(0.000000, 64.000000)">
					<path id="Rectangle-12-Copy" class="st0" d="M2,0h146c1.1,0,2,0.9,2,2v16c0,1.1-0.9,2-2,2H2c-1.1,0-2-0.9-2-2V2
						C0,0.9,0.9,0,2,0z"></path>
					<g id="Group-29" transform="translate(7.000000, 3.000000)">
						<path id="Follow-_x40_mrassignment" class="st1" d="M12,3.1h5.4v1.2h-4v2.1h3.6v1.1h-3.6V11H12V3.1z M20.9,11.2
							c-0.5,0-0.9-0.1-1.2-0.2c-0.4-0.2-0.7-0.4-0.9-0.6c-0.2-0.3-0.4-0.6-0.6-0.9s-0.2-0.8-0.2-1.2c0-0.4,0.1-0.8,0.2-1.2
							c0.1-0.4,0.3-0.7,0.6-0.9c0.2-0.3,0.5-0.5,0.9-0.6c0.4-0.2,0.8-0.2,1.2-0.2c0.5,0,0.9,0.1,1.2,0.2c0.4,0.2,0.7,0.4,0.9,0.6
							s0.4,0.6,0.6,0.9c0.1,0.4,0.2,0.8,0.2,1.2c0,0.4-0.1,0.8-0.2,1.2s-0.3,0.7-0.6,0.9c-0.2,0.3-0.5,0.5-0.9,0.6
							C21.8,11.1,21.4,11.2,20.9,11.2z M20.9,10.2c0.3,0,0.5-0.1,0.7-0.2c0.2-0.1,0.4-0.3,0.5-0.5c0.1-0.2,0.2-0.4,0.3-0.6
							s0.1-0.5,0.1-0.7c0-0.2,0-0.5-0.1-0.7c-0.1-0.2-0.2-0.5-0.3-0.6c-0.1-0.2-0.3-0.3-0.5-0.5c-0.2-0.1-0.4-0.2-0.7-0.2
							c-0.3,0-0.5,0.1-0.7,0.2c-0.2,0.1-0.4,0.3-0.5,0.5c-0.1,0.2-0.2,0.4-0.3,0.6c-0.1,0.2-0.1,0.5-0.1,0.7c0,0.2,0,0.5,0.1,0.7
							c0.1,0.2,0.2,0.5,0.3,0.6c0.1,0.2,0.3,0.3,0.5,0.5C20.4,10.1,20.7,10.2,20.9,10.2z M24.9,3.1h1.3V11h-1.3V3.1z M27.5,3.1h1.3
							V11h-1.3V3.1z M32.8,11.2c-0.5,0-0.9-0.1-1.2-0.2s-0.7-0.4-0.9-0.6c-0.2-0.3-0.4-0.6-0.6-0.9s-0.2-0.8-0.2-1.2
							c0-0.4,0.1-0.8,0.2-1.2c0.1-0.4,0.3-0.7,0.6-0.9s0.5-0.5,0.9-0.6s0.8-0.2,1.2-0.2s0.9,0.1,1.2,0.2s0.7,0.4,0.9,0.6
							c0.2,0.3,0.4,0.6,0.6,0.9c0.1,0.4,0.2,0.8,0.2,1.2c0,0.4-0.1,0.8-0.2,1.2s-0.3,0.7-0.6,0.9c-0.2,0.3-0.5,0.5-0.9,0.6
							S33.2,11.2,32.8,11.2z M32.8,10.2c0.3,0,0.5-0.1,0.7-0.2c0.2-0.1,0.4-0.3,0.5-0.5c0.1-0.2,0.2-0.4,0.3-0.6
							c0.1-0.2,0.1-0.5,0.1-0.7c0-0.2,0-0.5-0.1-0.7C34.2,7.2,34.1,7,34,6.8c-0.1-0.2-0.3-0.3-0.5-0.5c-0.2-0.1-0.4-0.2-0.7-0.2
							S32.2,6.2,32,6.3c-0.2,0.1-0.4,0.3-0.5,0.5c-0.1,0.2-0.2,0.4-0.3,0.6c-0.1,0.2-0.1,0.5-0.1,0.7c0,0.2,0,0.5,0.1,0.7
							c0.1,0.2,0.2,0.5,0.3,0.6c0.1,0.2,0.3,0.3,0.5,0.5C32.2,10.1,32.5,10.2,32.8,10.2z M36.2,5.3h1.3l1.1,4.2h0l1.1-4.2H41l1,4.2
							h0l1.2-4.2h1.3L42.7,11h-1.3l-1.1-4.2h0l-1,4.2h-1.3L36.2,5.3z M51.6,7.9c0,0.1-0.1,0.2-0.1,0.3s0,0.2,0,0.2s0,0.1,0,0.2
							c0,0,0.1,0.1,0.2,0.1c0.2,0,0.3-0.1,0.5-0.2s0.3-0.3,0.5-0.5c0.1-0.2,0.2-0.5,0.3-0.8c0.1-0.3,0.1-0.6,0.1-0.9
							c0-0.4-0.1-0.8-0.2-1.1c-0.2-0.3-0.4-0.6-0.6-0.8C52,4.2,51.7,4,51.3,3.9c-0.4-0.1-0.7-0.2-1.1-0.2c-0.5,0-0.9,0.1-1.3,0.3
							s-0.7,0.4-1,0.7c-0.3,0.3-0.5,0.6-0.6,1S47.1,6.5,47.1,7c0,0.5,0.1,1,0.2,1.5c0.2,0.4,0.4,0.8,0.7,1.1c0.3,0.3,0.6,0.5,1,0.7
							c0.4,0.2,0.8,0.2,1.3,0.2c0.5,0,0.9-0.1,1.4-0.3c0.4-0.2,0.8-0.5,1.1-0.8h0.8c-0.4,0.6-0.8,1-1.4,1.3
							c-0.6,0.3-1.2,0.5-1.9,0.5c-0.6,0-1.1-0.1-1.6-0.3c-0.5-0.2-0.9-0.5-1.3-0.9c-0.4-0.4-0.7-0.8-0.9-1.3
							c-0.2-0.5-0.3-1.1-0.3-1.7c0-0.6,0.1-1.1,0.3-1.6s0.5-0.9,0.9-1.3c0.4-0.4,0.8-0.6,1.3-0.8c0.5-0.2,1-0.3,1.6-0.3
							c0.5,0,1,0.1,1.4,0.2c0.4,0.2,0.8,0.4,1.2,0.7s0.6,0.6,0.8,1c0.2,0.4,0.3,0.8,0.3,1.3c0,0.6-0.1,1-0.3,1.4
							c-0.2,0.4-0.4,0.8-0.7,1c-0.3,0.3-0.6,0.5-0.9,0.6c-0.3,0.1-0.6,0.2-0.8,0.2c-0.2,0-0.3-0.1-0.4-0.2S50.7,9,50.7,8.8h0
							c-0.1,0.2-0.3,0.3-0.6,0.4s-0.4,0.2-0.7,0.2c-0.2,0-0.4,0-0.6-0.1c-0.2-0.1-0.4-0.2-0.5-0.4c-0.1-0.2-0.3-0.3-0.3-0.6
							c-0.1-0.2-0.1-0.4-0.1-0.7c0-0.4,0.1-0.7,0.2-1c0.1-0.3,0.3-0.6,0.5-0.9c0.2-0.3,0.5-0.5,0.8-0.7s0.6-0.2,1-0.2
							c0.3,0,0.5,0.1,0.7,0.2c0.2,0.1,0.4,0.3,0.5,0.6L51.6,5h0.8L51.6,7.9z M49.6,8.6c0.2,0,0.4-0.1,0.6-0.2
							c0.2-0.1,0.3-0.3,0.5-0.5c0.1-0.2,0.2-0.4,0.3-0.6c0.1-0.2,0.1-0.4,0.1-0.6c0-0.1,0-0.3-0.1-0.4S50.9,6.1,50.9,6
							c-0.1-0.1-0.2-0.2-0.3-0.2c-0.1-0.1-0.2-0.1-0.3-0.1c-0.2,0-0.4,0.1-0.6,0.2c-0.2,0.1-0.3,0.3-0.5,0.5S48.9,6.7,48.8,7
							s-0.1,0.4-0.1,0.6c0,0.3,0.1,0.5,0.2,0.7C49.1,8.5,49.3,8.6,49.6,8.6z"></path>
						<g>
							<path class="st1" d="M57.6,4h1.5v0.8c0.5-0.7,1.2-1,1.9-1c0.4,0,0.7,0.1,1,0.2s0.5,0.4,0.7,0.7c0.3-0.3,0.6-0.6,0.9-0.7
								s0.7-0.2,1-0.2c0.5,0,0.8,0.1,1.2,0.3s0.6,0.5,0.7,0.8c0.1,0.3,0.2,0.7,0.2,1.3v4h-1.6V6.7c0-0.6-0.1-1-0.2-1.2
								c-0.2-0.2-0.4-0.4-0.7-0.4c-0.2,0-0.4,0.1-0.7,0.2S63.2,5.7,63.1,6S63,6.7,63,7.2v3h-1.6V6.8c0-0.6,0-1-0.1-1.2
								S61.1,5.3,61,5.3s-0.3-0.1-0.5-0.1c-0.3,0-0.5,0.1-0.7,0.2s-0.3,0.3-0.4,0.6s-0.1,0.7-0.1,1.3v3h-1.6V4z"></path>
							<path class="st1" d="M70,10.2h-1.6V4h1.5v0.9c0.3-0.4,0.5-0.7,0.7-0.8s0.4-0.2,0.7-0.2c0.4,0,0.7,0.1,1.1,0.3l-0.5,1.4
								c-0.3-0.2-0.5-0.3-0.8-0.3c-0.2,0-0.4,0.1-0.6,0.2s-0.3,0.4-0.4,0.7S70,7.3,70,8.3V10.2z"></path>
							<path class="st1" d="M74.3,5.9l-1.5-0.3c0.2-0.6,0.5-1,0.9-1.3s1-0.4,1.8-0.4c0.7,0,1.3,0.1,1.6,0.3s0.6,0.4,0.8,0.7
								s0.2,0.8,0.2,1.5l0,1.9c0,0.5,0,1,0.1,1.2s0.2,0.5,0.3,0.8h-1.6c0-0.1-0.1-0.3-0.2-0.5c0-0.1,0-0.2-0.1-0.2
								c-0.3,0.3-0.6,0.5-0.9,0.6s-0.7,0.2-1,0.2c-0.6,0-1.1-0.2-1.5-0.5s-0.6-0.8-0.6-1.3c0-0.4,0.1-0.7,0.3-0.9s0.4-0.5,0.7-0.6
								s0.7-0.3,1.3-0.4c0.8-0.1,1.3-0.3,1.6-0.4V6c0-0.3-0.1-0.5-0.2-0.7s-0.5-0.2-0.9-0.2c-0.3,0-0.5,0.1-0.7,0.2
								S74.4,5.6,74.3,5.9z M76.5,7.2c-0.2,0.1-0.5,0.2-1,0.3s-0.8,0.2-0.9,0.3c-0.2,0.2-0.3,0.3-0.3,0.6c0,0.2,0.1,0.4,0.3,0.6
								s0.4,0.3,0.7,0.3c0.3,0,0.6-0.1,0.8-0.3c0.2-0.1,0.3-0.3,0.4-0.5c0-0.1,0.1-0.4,0.1-0.8V7.2z"></path>
							<path class="st1" d="M79.2,8.5l1.7-0.3c0.1,0.3,0.2,0.6,0.4,0.7s0.5,0.2,0.9,0.2c0.4,0,0.7-0.1,1-0.2
								c0.1-0.1,0.2-0.3,0.2-0.4c0-0.1,0-0.2-0.1-0.3C83.1,8.1,82.9,8,82.7,8c-1.3-0.3-2.2-0.6-2.5-0.8c-0.5-0.3-0.7-0.8-0.7-1.4
								c0-0.5,0.2-1,0.6-1.4s1.1-0.6,2-0.6c0.9,0,1.5,0.1,1.9,0.4s0.7,0.7,0.9,1.2l-1.6,0.3c-0.1-0.2-0.2-0.4-0.4-0.6
								S82.4,5.1,82,5.1c-0.4,0-0.7,0.1-0.9,0.2c-0.1,0.1-0.2,0.2-0.2,0.3c0,0.1,0.1,0.2,0.2,0.3c0.1,0.1,0.7,0.3,1.5,0.5
								s1.5,0.4,1.8,0.7C84.8,7.4,85,7.8,85,8.3c0,0.6-0.2,1.1-0.7,1.5s-1.2,0.6-2.1,0.6c-0.8,0-1.5-0.2-2-0.5S79.3,9,79.2,8.5z"></path>
							<path class="st1" d="M85.8,8.5l1.7-0.3c0.1,0.3,0.2,0.6,0.4,0.7s0.5,0.2,0.9,0.2c0.4,0,0.7-0.1,1-0.2C89.9,8.8,90,8.7,90,8.5
								c0-0.1,0-0.2-0.1-0.3C89.8,8.1,89.6,8,89.3,8c-1.3-0.3-2.2-0.6-2.5-0.8c-0.5-0.3-0.7-0.8-0.7-1.4c0-0.5,0.2-1,0.6-1.4
								s1.1-0.6,2-0.6c0.9,0,1.5,0.1,1.9,0.4s0.7,0.7,0.9,1.2l-1.6,0.3c-0.1-0.2-0.2-0.4-0.4-0.6s-0.5-0.2-0.8-0.2
								c-0.4,0-0.7,0.1-0.9,0.2c-0.1,0.1-0.2,0.2-0.2,0.3c0,0.1,0.1,0.2,0.2,0.3c0.1,0.1,0.7,0.3,1.5,0.5s1.5,0.4,1.8,0.7
								c0.3,0.3,0.5,0.7,0.5,1.2c0,0.6-0.2,1.1-0.7,1.5s-1.2,0.6-2.1,0.6c-0.8,0-1.5-0.2-2-0.5S86,9,85.8,8.5z"></path>
							<path class="st1" d="M93.1,3.2V1.6h1.6v1.5H93.1z M93.1,10.2V4h1.6v6.2H93.1z"></path>
							<path class="st1" d="M96.3,10.6l1.9,0.2c0,0.2,0.1,0.4,0.2,0.5c0.2,0.1,0.4,0.2,0.7,0.2c0.4,0,0.8-0.1,1-0.2
								c0.1-0.1,0.3-0.2,0.3-0.4c0.1-0.1,0.1-0.4,0.1-0.8V9.2c-0.5,0.7-1.1,1-1.9,1c-0.8,0-1.5-0.4-2-1.1c-0.4-0.6-0.6-1.3-0.6-2.1
								c0-1,0.3-1.8,0.8-2.4s1.1-0.8,1.9-0.8c0.8,0,1.4,0.3,1.9,1V4h1.5v5.6c0,0.7-0.1,1.3-0.2,1.6s-0.3,0.6-0.5,0.9
								s-0.5,0.4-0.9,0.5s-0.8,0.2-1.4,0.2c-1.1,0-1.8-0.2-2.2-0.5s-0.7-0.8-0.7-1.4C96.3,10.8,96.3,10.7,96.3,10.6z M97.7,7
								c0,0.7,0.1,1.1,0.4,1.5s0.6,0.5,0.9,0.5c0.4,0,0.7-0.2,1-0.5s0.4-0.8,0.4-1.4c0-0.6-0.1-1.1-0.4-1.4s-0.6-0.5-1-0.5
								c-0.4,0-0.7,0.2-1,0.5S97.7,6.4,97.7,7z"></path>
							<path class="st1" d="M109.4,10.2h-1.6V7.1c0-0.7,0-1.1-0.1-1.3s-0.2-0.4-0.3-0.5s-0.3-0.2-0.6-0.2c-0.3,0-0.5,0.1-0.8,0.2
								s-0.4,0.4-0.5,0.6s-0.1,0.7-0.1,1.4v2.8h-1.6V4h1.5v0.9c0.5-0.7,1.2-1.1,2.1-1.1c0.4,0,0.7,0.1,1,0.2s0.5,0.3,0.7,0.5
								s0.3,0.4,0.3,0.7s0.1,0.6,0.1,1.1V10.2z"></path>
							<path class="st1" d="M111,4h1.5v0.8c0.5-0.7,1.2-1,1.9-1c0.4,0,0.7,0.1,1,0.2s0.5,0.4,0.7,0.7c0.3-0.3,0.6-0.6,0.9-0.7
								s0.7-0.2,1-0.2c0.5,0,0.8,0.1,1.2,0.3s0.6,0.5,0.7,0.8c0.1,0.3,0.2,0.7,0.2,1.3v4h-1.6V6.7c0-0.6-0.1-1-0.2-1.2
								c-0.2-0.2-0.4-0.4-0.7-0.4c-0.2,0-0.4,0.1-0.7,0.2s-0.3,0.3-0.4,0.6s-0.1,0.7-0.1,1.3v3h-1.6V6.8c0-0.6,0-1-0.1-1.2
								s-0.1-0.3-0.3-0.4s-0.3-0.1-0.5-0.1c-0.3,0-0.5,0.1-0.7,0.2s-0.3,0.3-0.4,0.6s-0.1,0.7-0.1,1.3v3H111V4z"></path>
							<path class="st1" d="M125.4,8.3l1.6,0.3c-0.2,0.6-0.5,1.1-1,1.4s-1,0.5-1.7,0.5c-1.1,0-1.9-0.4-2.4-1.1
								c-0.4-0.6-0.6-1.3-0.6-2.1c0-1,0.3-1.8,0.8-2.4s1.2-0.9,2-0.9c0.9,0,1.7,0.3,2.2,0.9s0.8,1.5,0.8,2.8H123
								c0,0.5,0.1,0.9,0.4,1.1s0.6,0.4,0.9,0.4c0.3,0,0.5-0.1,0.7-0.2S125.3,8.6,125.4,8.3z M125.4,6.6c0-0.5-0.1-0.8-0.4-1.1
								s-0.5-0.4-0.9-0.4c-0.4,0-0.7,0.1-0.9,0.4S123,6.1,123,6.6H125.4z"></path>
							<path class="st1" d="M134.1,10.2h-1.6V7.1c0-0.7,0-1.1-0.1-1.3s-0.2-0.4-0.3-0.5s-0.3-0.2-0.6-0.2c-0.3,0-0.5,0.1-0.8,0.2
								s-0.4,0.4-0.5,0.6s-0.1,0.7-0.1,1.4v2.8h-1.6V4h1.5v0.9c0.5-0.7,1.2-1.1,2.1-1.1c0.4,0,0.7,0.1,1,0.2s0.5,0.3,0.7,0.5
								s0.3,0.4,0.3,0.7s0.1,0.6,0.1,1.1V10.2z"></path>
							<path class="st1" d="M138.6,4v1.3h-1.1v2.5c0,0.5,0,0.8,0,0.9s0.1,0.2,0.1,0.2s0.2,0.1,0.3,0.1c0.2,0,0.4-0.1,0.7-0.2
								l0.1,1.3c-0.4,0.2-0.8,0.2-1.3,0.2c-0.3,0-0.6,0-0.8-0.1s-0.4-0.2-0.5-0.4s-0.2-0.4-0.2-0.6c0-0.2-0.1-0.6-0.1-1.2V5.3h-0.8
								V4h0.8V2.8l1.7-1V4H138.6z"></path>
						</g>
						<path id="Shape" class="st1" d="M2.3,5.4l0,0.4l-0.4,0C0.5,5.6-0.8,4.9-1.8,3.9l-0.5-0.5l-0.1,0.4C-2.8,4.6-2.6,5.5-2,6.1
							c0.3,0.3,0.2,0.4-0.3,0.2c-0.2-0.1-0.4-0.1-0.4-0.1C-2.7,6.3-2.5,7-2.4,7.3c0.2,0.4,0.6,0.8,1.1,1l0.4,0.2l-0.5,0
							c-0.4,0-0.5,0-0.4,0.2C-1.6,9.2-1,9.7-0.3,10l0.5,0.2l-0.4,0.3c-0.6,0.4-1.4,0.6-2.1,0.6C-2.7,11-3,11-3,11
							c0,0.1,1,0.5,1.5,0.7c1.7,0.5,3.7,0.3,5.2-0.6c1.1-0.6,2.1-1.9,2.6-3.1c0.3-0.6,0.5-1.8,0.5-2.4c0-0.4,0-0.4,0.5-0.9
							c0.3-0.3,0.5-0.5,0.6-0.6c0.1-0.2,0.1-0.2-0.3,0C6.9,4.4,6.8,4.4,7.1,4c0.2-0.3,0.5-0.7,0.5-0.9c0,0-0.1,0-0.3,0.1
							C7.2,3.4,6.9,3.5,6.7,3.6L6.3,3.7L5.9,3.4C5.7,3.3,5.4,3.1,5.2,3.1C4.8,3,4.2,3,3.8,3.1C2.8,3.5,2.2,4.4,2.3,5.4z"></path>
					</g>
				</g>
			</g>
		</g>
	</g>
</g>
</svg>