<svg xmlns="http://www.w3.org/2000/svg" width="116" height="20" viewBox="0 0 116 20"><g><g><g><g><g><path fill="#00c853" d="M0 2a2 2 0 0 1 2-2h16a2 2 0 0 1 2 2v16a2 2 0 0 1-2 2H2a2 2 0 0 1-2-2z"></path></g><g><g><path fill="#fff" d="M16.29 9.16l-2.638 2.69.622 3.797a.747.747 0 0 1-.278.714.677.677 0 0 1-.734.055L10 14.623 6.74 16.416a.674.674 0 0 1-.735-.055.746.746 0 0 1-.277-.713l.623-3.798-2.64-2.69a.753.753 0 0 1-.176-.747.707.707 0 0 1 .563-.496l3.646-.555 1.632-3.455A.693.693 0 0 1 10 3.5c.266 0 .507.157.625.406l1.632 3.456 3.647.554c.262.04.48.233.561.497a.751.751 0 0 1-.175.747z"></path></g></g></g></g><g><g><g><path fill="#00c853" d="M24 2a2 2 0 0 1 2-2h16a2 2 0 0 1 2 2v16a2 2 0 0 1-2 2H26a2 2 0 0 1-2-2z"></path></g><g><g><path fill="#fff" d="M40.29 9.16l-2.638 2.69.622 3.797a.747.747 0 0 1-.278.714.677.677 0 0 1-.734.055L34 14.623l-3.261 1.793a.674.674 0 0 1-.735-.055.746.746 0 0 1-.277-.713l.623-3.798-2.64-2.69a.753.753 0 0 1-.176-.747.707.707 0 0 1 .563-.496l3.646-.555 1.632-3.455A.693.693 0 0 1 34 3.5c.266 0 .507.157.625.406l1.632 3.456 3.647.554c.262.04.48.233.561.497a.751.751 0 0 1-.175.747z"></path></g></g></g></g><g><g><g><path fill="#00c853" d="M48 2a2 2 0 0 1 2-2h16a2 2 0 0 1 2 2v16a2 2 0 0 1-2 2H50a2 2 0 0 1-2-2z"></path></g><g><g><path fill="#fff" d="M64.29 9.16l-2.639 2.69.623 3.797a.747.747 0 0 1-.278.714.677.677 0 0 1-.734.055L58 14.623l-3.261 1.793a.674.674 0 0 1-.735-.055.746.746 0 0 1-.277-.713l.623-3.798-2.64-2.69a.753.753 0 0 1-.176-.747.707.707 0 0 1 .563-.496l3.646-.555 1.632-3.455A.693.693 0 0 1 58 3.5c.266 0 .507.157.625.406l1.632 3.456 3.647.554c.262.04.48.233.561.497a.751.751 0 0 1-.175.747z"></path></g></g></g></g><g><g><g><path fill="#00c853" d="M72 2a2 2 0 0 1 2-2h16a2 2 0 0 1 2 2v16a2 2 0 0 1-2 2H74a2 2 0 0 1-2-2z"></path></g><g><g><path fill="#fff" d="M88.29 9.16l-2.639 2.69.623 3.797a.747.747 0 0 1-.278.714.677.677 0 0 1-.734.055L82 14.623l-3.261 1.793a.674.674 0 0 1-.735-.055.746.746 0 0 1-.277-.713l.623-3.798-2.64-2.69a.753.753 0 0 1-.176-.747.707.707 0 0 1 .563-.496l3.646-.555 1.632-3.455A.693.693 0 0 1 82 3.5c.266 0 .507.157.625.406l1.632 3.456 3.647.554c.262.04.48.233.561.497a.751.751 0 0 1-.175.747z"></path></g></g></g></g><g><g><g><path fill="#00c853" d="M96 2a2 2 0 0 1 2-2h16a2 2 0 0 1 2 2v16a2 2 0 0 1-2 2H98a2 2 0 0 1-2-2z"></path></g><g><g><path fill="#fff" d="M112.29 9.16l-2.639 2.69.623 3.797a.747.747 0 0 1-.278.714.677.677 0 0 1-.734.055L106 14.623l-3.261 1.793a.674.674 0 0 1-.735-.055.746.746 0 0 1-.277-.713l.623-3.798-2.64-2.69a.753.753 0 0 1-.176-.747.707.707 0 0 1 .563-.496l3.646-.555 1.632-3.455A.693.693 0 0 1 106 3.5c.266 0 .507.157.625.406l1.632 3.456 3.647.554c.262.04.48.233.561.497a.751.751 0 0 1-.175.747z"></path></g></g></g></g></g></g></svg>