<svg xmlns="http://www.w3.org/2000/svg" width="64" height="66" viewBox="0 0 59 66"><g><g><g><path fill="#dc5b21" d="M45.274 10.344a.928.928 0 0 0-1.178.591.94.94 0 0 0 .586 1.187 31.343 31.343 0 0 0 6.065 1.388c3.13.4 5.363 3.312 4.978 6.491-.504 4.17-1.427 10.395-2.961 16.365-1.671 6.504-3.633 11.029-5.83 13.45-4.512 4.97-10.169 9.377-14.12 12.198a5.973 5.973 0 0 1-6.94 0c-3.951-2.821-9.608-7.227-14.12-12.199-2.197-2.42-4.159-6.945-5.83-13.449-1.534-5.97-2.457-12.195-2.961-16.365-.384-3.18 1.849-6.091 4.979-6.49 9.021-1.151 15-5.721 18.428-9.353a4.053 4.053 0 0 1 2.974-1.283c1.137 0 2.193.456 2.974 1.283a30.523 30.523 0 0 0 8.484 6.341.926.926 0 0 0 1.247-.42.941.941 0 0 0-.416-1.257 28.683 28.683 0 0 1-7.968-5.956A5.887 5.887 0 0 0 29.344 1c-1.65 0-3.186.663-4.321 1.866-3.22 3.41-8.837 7.703-17.315 8.784-4.142.528-7.1 4.377-6.591 8.579.866 7.16 3.502 24.502 9.265 30.853 4.623 5.093 10.392 9.588 14.417 12.462A7.811 7.811 0 0 0 29.344 65a7.816 7.816 0 0 0 4.545-1.456c4.025-2.874 9.794-7.37 14.417-12.462 5.763-6.35 8.4-23.692 9.265-30.853.508-4.202-2.449-8.05-6.591-8.58a29.509 29.509 0 0 1-5.706-1.305z"></path><path fill="none" stroke="#dc5b21" stroke-miterlimit="50" stroke-width=".2" d="M45.274 10.344a.928.928 0 0 0-1.178.591.94.94 0 0 0 .586 1.187 31.343 31.343 0 0 0 6.065 1.388c3.13.4 5.363 3.312 4.978 6.491-.504 4.17-1.427 10.395-2.961 16.365-1.671 6.504-3.633 11.029-5.83 13.45-4.512 4.97-10.169 9.377-14.12 12.198a5.973 5.973 0 0 1-6.94 0c-3.951-2.821-9.608-7.227-14.12-12.199-2.197-2.42-4.159-6.945-5.83-13.449-1.534-5.97-2.457-12.195-2.961-16.365-.384-3.18 1.849-6.091 4.979-6.49 9.021-1.151 15-5.721 18.428-9.353a4.053 4.053 0 0 1 2.974-1.283c1.137 0 2.193.456 2.974 1.283a30.523 30.523 0 0 0 8.484 6.341.926.926 0 0 0 1.247-.42.941.941 0 0 0-.416-1.257 28.683 28.683 0 0 1-7.968-5.956A5.887 5.887 0 0 0 29.344 1c-1.65 0-3.186.663-4.321 1.866-3.22 3.41-8.837 7.703-17.315 8.784-4.142.528-7.1 4.377-6.591 8.579.866 7.16 3.502 24.502 9.265 30.853 4.623 5.093 10.392 9.588 14.417 12.462A7.811 7.811 0 0 0 29.344 65a7.816 7.816 0 0 0 4.545-1.456c4.025-2.874 9.794-7.37 14.417-12.462 5.763-6.35 8.4-23.692 9.265-30.853.508-4.202-2.449-8.05-6.591-8.58a29.509 29.509 0 0 1-5.706-1.305z"></path></g><g><path fill="none" stroke="#dc5b21" stroke-linecap="round" stroke-miterlimit="50" stroke-width="2" d="M41.2 9.7l4.3 1.8"></path></g><g><path fill="#dc5b21" d="M46.455 34.713c-1.959 7.624-3.807 10.085-4.327 10.658-3.118 3.435-9.273 8.265-11.775 10.182a1.65 1.65 0 0 1-2.005 0c-2.502-1.917-8.657-6.747-11.775-10.182-.52-.573-2.368-3.034-4.327-10.658-1.039-4.044-1.912-9.961-2.34-13.13-.125-.922.48-1.78 1.379-1.956 6.45-1.257 12.231-4.085 17.185-8.406a1.337 1.337 0 0 1 1.762 0c4.952 4.321 10.734 7.15 17.184 8.406.898.175 1.504 1.034 1.38 1.957-.429 3.167-1.302 9.084-2.341 13.129zM27.253 9.803c-4.704 4.104-10.195 6.79-16.32 7.983-1.867.364-3.127 2.143-2.87 4.051.434 3.209 1.32 9.21 2.383 13.346 1.938 7.542 3.811 10.414 4.756 11.454 3.104 3.42 8.864 7.99 12.02 10.409.627.48 1.378.72 2.128.72.751 0 1.502-.24 2.128-.72 3.157-2.42 8.917-6.99 12.021-10.41.945-1.04 2.818-3.911 4.756-11.453 1.063-4.138 1.95-10.138 2.383-13.346.258-1.908-1.003-3.687-2.87-4.051-6.125-1.193-11.616-3.88-16.32-7.983a3.203 3.203 0 0 0-4.195 0z"></path><path fill="none" stroke="#dc5b21" stroke-miterlimit="50" stroke-width=".2" d="M46.455 34.713c-1.959 7.624-3.807 10.085-4.327 10.658-3.118 3.435-9.273 8.265-11.775 10.182a1.65 1.65 0 0 1-2.005 0c-2.502-1.917-8.657-6.747-11.775-10.182-.52-.573-2.368-3.034-4.327-10.658-1.039-4.044-1.912-9.961-2.34-13.13-.125-.922.48-1.78 1.379-1.956 6.45-1.257 12.231-4.085 17.185-8.406a1.337 1.337 0 0 1 1.762 0c4.952 4.321 10.734 7.15 17.184 8.406.898.175 1.504 1.034 1.38 1.957-.429 3.167-1.302 9.084-2.341 13.129zM27.253 9.803c-4.704 4.104-10.195 6.79-16.32 7.983-1.867.364-3.127 2.143-2.87 4.051.434 3.209 1.32 9.21 2.383 13.346 1.938 7.542 3.811 10.414 4.756 11.454 3.104 3.42 8.864 7.99 12.02 10.409.627.48 1.378.72 2.128.72.751 0 1.502-.24 2.128-.72 3.157-2.42 8.917-6.99 12.021-10.41.945-1.04 2.818-3.911 4.756-11.453 1.063-4.138 1.95-10.138 2.383-13.346.258-1.908-1.003-3.687-2.87-4.051-6.125-1.193-11.616-3.88-16.32-7.983a3.203 3.203 0 0 0-4.195 0z"></path></g><g><path fill="#dc5b21" d="M24.19 30.254c-.7-.575-3.06-1.76-4.75.491s-.212 4.215.488 4.79l2.696 2.211a.924.924 0 0 0 1.308-.135.944.944 0 0 0-.134-1.32l-2.696-2.211c-.314-.258-1-1.097-.22-2.152.781-1.053 1.82-.478 2.134-.22l5.583 4.58a.924.924 0 0 0 1.241-.061l8.17-8.161a1.51 1.51 0 0 1 2.145.01 1.54 1.54 0 0 1-.01 2.162l-9.731 9.721c-.77.75-1.62.437-2.025.1l-1.544-1.267a.925.925 0 0 0-1.309.135.943.943 0 0 0 .135 1.319l1.544 1.267c.6.492 1.357.764 2.13.764.897 0 1.741-.35 2.378-.986l9.73-9.72a3.428 3.428 0 0 0 .023-4.815 3.36 3.36 0 0 0-4.775-.022l-7.577 7.568z"></path><path fill="none" stroke="#dc5b21" stroke-miterlimit="50" stroke-width=".2" d="M24.19 30.254c-.7-.575-3.06-1.76-4.75.491s-.212 4.215.488 4.79l2.696 2.211a.924.924 0 0 0 1.308-.135.944.944 0 0 0-.134-1.32l-2.696-2.211c-.314-.258-1-1.097-.22-2.152.781-1.053 1.82-.478 2.134-.22l5.583 4.58a.924.924 0 0 0 1.241-.061l8.17-8.161a1.51 1.51 0 0 1 2.145.01 1.54 1.54 0 0 1-.01 2.162l-9.731 9.721c-.77.75-1.62.437-2.025.1l-1.544-1.267a.925.925 0 0 0-1.309.135.943.943 0 0 0 .135 1.319l1.544 1.267c.6.492 1.357.764 2.13.764.897 0 1.741-.35 2.378-.986l9.73-9.72a3.428 3.428 0 0 0 .023-4.815 3.36 3.36 0 0 0-4.775-.022l-7.577 7.568v0z"></path></g></g></g></svg>