<svg xmlns="http://www.w3.org/2000/svg" width="21" height="21" viewBox="0 0 21 21"><g><g><g><path fill="#dc5b21" d="M0 10C0 4.477 4.477 0 10 0h1c5.523 0 10 4.477 10 10v1c0 5.523-4.477 10-10 10h-1C4.477 21 0 16.523 0 11z"></path></g><g><g><path fill="#fff" d="M15.955 8.193l-6.82 6.762a.154.154 0 0 1-.218 0l-3.872-3.84a.151.151 0 0 1 0-.215l.94-.933c.061-.06.158-.06.218 0l2.823 2.8 5.77-5.722c.061-.06.158-.06.218 0l.94.933c.061.059.061.155 0 .215z"></path><path fill="none" stroke="#fff" stroke-miterlimit="50" d="M15.955 8.193l-6.82 6.762a.154.154 0 0 1-.218 0l-3.872-3.84a.151.151 0 0 1 0-.215l.94-.933c.061-.06.158-.06.218 0l2.823 2.8v0l5.77-5.722c.061-.06.158-.06.218 0l.94.933c.061.059.061.155 0 .215z"></path></g></g></g></g></svg>