<svg width="12" height="14" xmlns="http://www.w3.org/2000/svg"><g id="Page-1" fill="none" fill-rule="evenodd"><g id="Artboard" transform="translate(-66 -53)" fill="#8BC7FF" fill-rule="nonzero"><g id="orders" transform="translate(66 53)"><path d="M10.8 7.46c.57.03 1.05-.43 1.08-1.01.02-.6-.38-1.12-.95-1.15l-3.8-.48s.79-1.34.79-3.32C7.92.18 6.98 0 6.43 0 6 0 5.89.85 5.89.85a6.1 6.1 0 0 1-.67 1.89c-.5.97-1.18.88-1.96 1.75a4.52 4.52 0 0 0-.56.8l-.05.1-.09.17C2.07 6.05 1.31 6 .99 6 .34 6 0 6.38 0 7v4.57c0 .7.28.93.99.93h.99c.5 0 .89.29 1.49.5.81.28 2.03.5 4.13.5h1.51c.35 0 .63-.16.83-.36a.64.64 0 0 0 .2-.39v-.18c.03-.6-.33-.82-.53-.89h.01l.65.02c.57.03 1.13-.39 1.13-1.1 0-.58-.47-1-1.04-1.02l.34.01c.58.03 1.06-.43 1.09-1.02a1.06 1.06 0 0 0-1-1.1l.01-.01z" id="a"></path></g></g></g></svg>